<?xml version="1.0" encoding="utf-8"?>
<!-- Generator: Adobe Illustrator 25.4.1, SVG Export Plug-In . SVG Version: 6.00 Build 0)  -->
<svg version="1.1" xmlns="http://www.w3.org/2000/svg" xmlns:xlink="http://www.w3.org/1999/xlink" x="0px" y="0px"
	 viewBox="0 0 2000 2000" style="enable-background:new 0 0 2000 2000;" xml:space="preserve">
<style type="text/css">
	.st0{fill:#ECB35A;}
	.st1{fill:#A99AC4;}
	.st2{display:none;}
	.st3{display:inline;}
	.st4{fill:#FFFFFF;}
</style>
<g id="Capa_1">
	<g>
		<path class="st0" d="M458.33,1293.95l0.33,3.32h-36.2l-0.66-3.32c-6.31-30.89-25.24-50.48-59.78-50.48
			c-42.51,0-69.41,36.53-69.41,90.67c0,56.79,27.23,91.99,67.75,91.99c34.54,0,53.47-20.26,59.78-51.14l0.66-3.32H457l-0.33,3.32
			c-4.65,44.83-38.19,79.04-97.97,79.04c-65.42,0-105.61-48.49-105.61-118.23c0-72.07,45.17-120.22,109.6-120.22
			C422.46,1215.57,453.68,1248.78,458.33,1293.95z"/>
		<path class="st0" d="M643.65,1361.04c0,51.48-30.22,92.99-89.34,92.99c-59.45,0-89.34-41.51-89.34-92.99s29.89-92.66,89.34-92.66
			C613.42,1268.38,643.65,1309.56,643.65,1361.04z M604.79,1361.04c0-39.85-18.6-66.09-50.48-66.09
			c-32.21,0-50.81,26.24-50.81,66.09c0,39.85,18.6,66.42,50.81,66.42C586.19,1427.46,604.79,1400.89,604.79,1361.04z"/>
		<path class="st0" d="M698.44,1261.07v13.28h36.2v25.57h-36.2v149.45h-36.2v-149.45h-18.93v-25.57h18.93v-11.29
			c0-6.31,0-14.94,0.66-20.92c2.99-27.23,21.25-43.17,54.47-43.17c7.31,0,14.28,0.66,20.26,1.99v27.23
			c-21.59-3.99-36.2,1.33-38.19,15.94C698.78,1248.78,698.44,1256.09,698.44,1261.07z"/>
		<path class="st0" d="M785.46,1261.07v13.28h36.2v25.57h-36.2v149.45h-36.2v-149.45h-18.93v-25.57h18.93v-11.29
			c0-6.31,0-14.94,0.66-20.92c2.99-27.23,21.25-43.17,54.47-43.17c7.31,0,14.28,0.66,20.26,1.99v27.23
			c-21.59-3.99-36.2,1.33-38.19,15.94C785.79,1248.78,785.46,1256.09,785.46,1261.07z"/>
		<path class="st0" d="M984.39,1371.33H857.86c2.99,42.18,22.25,56.13,46.16,56.13c21.25,0,37.86-12.95,41.51-35.2h36.86
			c-7.64,41.84-41.18,61.77-79.71,61.77c-47.16,0-82.69-29.89-82.69-92.33c0-55.79,35.54-93.32,86.35-93.32
			c51.14,0,78.71,38.52,78.71,88.34C985.05,1360.04,985.05,1365.02,984.39,1371.33z M858.19,1345.76h89.34
			c-2.66-32.55-16.94-50.81-42.51-50.81C880.11,1294.95,862.17,1311.89,858.19,1345.76z"/>
		<path class="st1" d="M1201.92,1293.95l0.33,3.32h-36.2l-0.66-3.32c-6.31-30.89-25.24-50.48-59.78-50.48
			c-42.51,0-69.41,36.53-69.41,90.67c0,56.79,27.23,91.99,67.75,91.99c34.54,0,53.47-20.26,59.78-51.14l0.66-3.32h36.2l-0.33,3.32
			c-4.65,44.83-38.19,79.04-97.97,79.04c-65.42,0-105.61-48.49-105.61-118.23c0-72.07,45.17-120.22,109.6-120.22
			C1166.05,1215.57,1197.27,1248.78,1201.92,1293.95z"/>
		<path class="st1" d="M1387.24,1361.04c0,51.48-30.22,92.99-89.34,92.99c-59.45,0-89.34-41.51-89.34-92.99s29.89-92.66,89.34-92.66
			C1357.02,1268.38,1387.24,1309.56,1387.24,1361.04z M1348.38,1361.04c0-39.85-18.6-66.09-50.48-66.09
			c-32.21,0-50.81,26.24-50.81,66.09c0,39.85,18.6,66.42,50.81,66.42C1329.78,1427.46,1348.38,1400.89,1348.38,1361.04z"/>
		<path class="st1" d="M1564.92,1449.38h-36.53v-27.9l-13.28,19.26c-9.96,7.97-28.23,13.28-46.16,13.28
			c-50.48,0-79.37-38.19-79.37-90c0-64.43,39.85-95.65,85.35-95.65c14.61,0,32.88,3.99,41.85,10.96l11.62,17.6v-91.66h36.53V1449.38
			z M1528.38,1363.03v-9.3c0-42.84-25.9-58.78-49.48-58.78c-28.89,0-50.81,22.25-50.81,66.09c0,38.19,17.6,66.42,49.15,66.42
			C1504.8,1427.46,1528.38,1410.19,1528.38,1363.03z"/>
		<path class="st1" d="M1746.25,1371.33h-126.53c2.99,42.18,22.25,56.13,46.16,56.13c21.25,0,37.86-12.95,41.51-35.2h36.86
			c-7.64,41.84-41.18,61.77-79.71,61.77c-47.16,0-82.7-29.89-82.7-92.33c0-55.79,35.54-93.32,86.35-93.32
			c51.14,0,78.71,38.52,78.71,88.34C1746.91,1360.04,1746.91,1365.02,1746.25,1371.33z M1620.05,1345.76h89.34
			c-2.66-32.55-16.94-50.81-42.51-50.81C1641.97,1294.95,1624.03,1311.89,1620.05,1345.76z"/>
	</g>
	<g>
		<path class="st1" d="M1360.36,624.11h82.99v318.63h-82.99v-28.9h52.98V653.01h-52.98V624.11z"/>
	</g>
	<g>
		<g>
			<path class="st1" d="M1160.88,760.71l0.24,2.45h-33.79l-0.49-2.45c-4.16-20.81-16.89-33.05-39.42-33.05
				c-27.18,0-45.54,23.26-45.54,61.7c0,42.11,19.34,63.66,45.05,63.66c22.03,0,34.77-13.22,39.17-34.28l0.49-2.45h33.54l-0.24,2.45
				c-3.67,35.99-31.09,59.49-74.43,59.49c-47.01,0-79.33-33.05-79.33-86.92c0-55.33,35.01-88.87,81.77-88.87
				C1133.71,702.44,1157.45,727.42,1160.88,760.71z"/>
		</g>
		<g>
			<path class="st0" d="M919.6,702.44c46.76,0,81.77,33.54,81.77,88.87c0,53.86-32.32,86.92-79.33,86.92
				c-43.34,0-70.76-23.5-74.43-59.49l-0.24-2.45h33.54l0.49,2.45c4.41,21.06,17.14,34.28,39.17,34.28
				c25.71,0,45.05-21.55,45.05-63.66c0-38.44-18.36-61.7-45.54-61.7c-22.52,0-35.26,12.24-39.42,33.05l-0.49,2.45h-33.79l0.24-2.45
				C850.07,727.42,873.81,702.44,919.6,702.44z"/>
		</g>
		<g>
			<path class="st1" d="M782.79,511.05c-42.97,0-56.08,13.11-56.08,35.69c0,16.75,1.46,26.22,8.01,72.83
				c7.28,50.98,9.47,67,9.47,89.58c0,42.24-23.31,68.46-63.36,73.56c39.33,5.1,63.36,32.77,63.36,75.01
				c0,22.58-2.18,38.6-9.47,89.58c-6.55,46.61-8.01,56.08-8.01,72.83c0,22.58,13.11,35.69,56.08,35.69h8.74v40.78h-8.01
				c-62.63,0-99.05-17.48-99.05-77.2c0-15.29,1.46-27.68,8.74-79.38c5.83-40.06,8.01-59.72,8.01-80.11
				c0-32.04-16.02-51.71-59.72-56.08v-40.78c43.7-4.37,59.72-24.03,59.72-56.08c0-20.39-2.18-40.06-8.01-80.11
				c-7.28-51.71-8.74-64.09-8.74-79.38c0-59.72,36.41-77.2,99.05-77.2h8.01v40.78H782.79z"/>
		</g>
		<g>
			<path class="st1" d="M1208.47,511.05v-40.78h8.01c62.63,0,99.05,17.48,99.05,77.2c0,15.29-1.46,27.68-8.74,79.38
				c-5.83,40.06-8.01,59.72-8.01,80.11c0,32.04,16.02,51.71,59.72,56.08v40.78c-43.7,4.37-59.72,24.03-59.72,56.08
				c0,20.39,2.18,40.06,8.01,80.11c7.28,51.71,8.74,64.09,8.74,79.38c0,59.72-36.41,77.2-99.05,77.2h-8.01v-40.78h8.74
				c42.97,0,56.08-13.11,56.08-35.69c0-16.75-1.46-26.22-8.01-72.83c-7.28-50.98-9.47-67-9.47-89.58
				c0-42.24,24.03-69.92,63.36-75.01c-40.06-5.1-63.36-31.32-63.36-73.56c0-22.58,2.18-38.6,9.47-89.58
				c6.55-46.61,8.01-56.08,8.01-72.83c0-22.58-13.11-35.69-56.08-35.69H1208.47z"/>
		</g>
		<ellipse class="st0" cx="1001.37" cy="554.28" rx="207.77" ry="29.95"/>
	</g>
</g>
<g id="Capa_2">
</g>
<g id="Capa_3" class="st2">
	<g class="st3">
		<g>
			<path class="st4" d="M4631.71,1792.42l0.11,1.11h-12.1l-0.22-1.11c-2.11-10.32-8.44-16.87-19.98-16.87
				c-14.21,0-23.2,12.21-23.2,30.3c0,18.98,9.1,30.75,22.65,30.75c11.54,0,17.87-6.77,19.98-17.09l0.22-1.11h12.1l-0.11,1.11
				c-1.55,14.99-12.77,26.42-32.75,26.42c-21.87,0-35.3-16.21-35.3-39.52c0-24.09,15.1-40.18,36.63-40.18
				C4619.72,1766.22,4630.16,1777.32,4631.71,1792.42z"/>
			<path class="st4" d="M4693.65,1814.84c0,17.21-10.1,31.08-29.86,31.08c-19.87,0-29.86-13.88-29.86-31.08
				c0-17.21,9.99-30.97,29.86-30.97C4683.55,1783.87,4693.65,1797.63,4693.65,1814.84z M4680.67,1814.84
				c0-13.32-6.22-22.09-16.87-22.09c-10.77,0-16.98,8.77-16.98,22.09c0,13.32,6.22,22.2,16.98,22.2
				C4674.45,1837.04,4680.67,1828.16,4680.67,1814.84z"/>
			<path class="st4" d="M4711.97,1781.43v4.44h12.1v8.55h-12.1v49.95h-12.1v-49.95h-6.33v-8.55h6.33v-3.77c0-2.11,0-4.99,0.22-6.99
				c1-9.1,7.1-14.43,18.2-14.43c2.44,0,4.77,0.22,6.77,0.67v9.1c-7.22-1.33-12.1,0.44-12.77,5.33
				C4712.08,1777.32,4711.97,1779.76,4711.97,1781.43z"/>
			<path class="st4" d="M4741.05,1781.43v4.44h12.1v8.55h-12.1v49.95h-12.1v-49.95h-6.33v-8.55h6.33v-3.77c0-2.11,0-4.99,0.22-6.99
				c1-9.1,7.1-14.43,18.2-14.43c2.44,0,4.77,0.22,6.77,0.67v9.1c-7.22-1.33-12.1,0.44-12.77,5.33
				C4741.16,1777.32,4741.05,1779.76,4741.05,1781.43z"/>
			<path class="st4" d="M4807.54,1818.28h-42.29c1,14.1,7.44,18.76,15.43,18.76c7.1,0,12.65-4.33,13.88-11.77h12.32
				c-2.55,13.99-13.76,20.65-26.64,20.65c-15.76,0-27.64-9.99-27.64-30.86c0-18.65,11.88-31.19,28.86-31.19
				c17.09,0,26.31,12.88,26.31,29.53C4807.77,1814.51,4807.77,1816.17,4807.54,1818.28z M4765.36,1809.73h29.86
				c-0.89-10.88-5.66-16.98-14.21-16.98C4772.69,1792.75,4766.69,1798.41,4765.36,1809.73z"/>
			<path class="st4" d="M4880.25,1792.42l0.11,1.11h-12.1l-0.22-1.11c-2.11-10.32-8.44-16.87-19.98-16.87
				c-14.21,0-23.2,12.21-23.2,30.3c0,18.98,9.1,30.75,22.65,30.75c11.54,0,17.87-6.77,19.98-17.09l0.22-1.11h12.1l-0.11,1.11
				c-1.55,14.99-12.77,26.42-32.75,26.42c-21.87,0-35.3-16.21-35.3-39.52c0-24.09,15.1-40.18,36.63-40.18
				C4868.26,1766.22,4878.7,1777.32,4880.25,1792.42z"/>
			<path class="st4" d="M4942.19,1814.84c0,17.21-10.1,31.08-29.86,31.08c-19.87,0-29.86-13.88-29.86-31.08
				c0-17.21,9.99-30.97,29.86-30.97C4932.09,1783.87,4942.19,1797.63,4942.19,1814.84z M4929.21,1814.84
				c0-13.32-6.22-22.09-16.87-22.09c-10.77,0-16.98,8.77-16.98,22.09c0,13.32,6.22,22.2,16.98,22.2
				C4922.99,1837.04,4929.21,1828.16,4929.21,1814.84z"/>
			<path class="st4" d="M5001.58,1844.37h-12.21v-9.32l-4.44,6.44c-3.33,2.66-9.44,4.44-15.43,4.44
				c-16.87,0-26.53-12.77-26.53-30.08c0-21.53,13.32-31.97,28.53-31.97c4.88,0,10.99,1.33,13.99,3.66l3.89,5.88v-30.64h12.21
				V1844.37z M4989.37,1815.51v-3.11c0-14.32-8.66-19.65-16.54-19.65c-9.66,0-16.98,7.44-16.98,22.09c0,12.77,5.88,22.2,16.43,22.2
				C4981.49,1837.04,4989.37,1831.27,4989.37,1815.51z"/>
			<path class="st4" d="M5062.19,1818.28h-42.29c1,14.1,7.44,18.76,15.43,18.76c7.1,0,12.65-4.33,13.88-11.77h12.32
				c-2.55,13.99-13.76,20.65-26.64,20.65c-15.76,0-27.64-9.99-27.64-30.86c0-18.65,11.88-31.19,28.86-31.19
				c17.09,0,26.31,12.88,26.31,29.53C5062.41,1814.51,5062.41,1816.17,5062.19,1818.28z M5020.01,1809.73h29.86
				c-0.89-10.88-5.66-16.98-14.21-16.98C5027.33,1792.75,5021.34,1798.41,5020.01,1809.73z"/>
		</g>
		<g>
			<path class="st4" d="M4933.21,1568.53h27.74v106.5h-27.74v-9.66h17.71v-87.18h-17.71V1568.53z"/>
		</g>
		<g>
			<g>
				<path class="st4" d="M4866.54,1614.19l0.08,0.82h-11.29l-0.16-0.82c-1.39-6.96-5.65-11.05-13.17-11.05
					c-9.08,0-15.22,7.77-15.22,20.62c0,14.08,6.46,21.28,15.06,21.28c7.37,0,11.62-4.42,13.09-11.46l0.16-0.82h11.21l-0.08,0.82
					c-1.23,12.03-10.39,19.89-24.88,19.89c-15.71,0-26.51-11.05-26.51-29.05c0-18.49,11.7-29.71,27.33-29.71
					C4857.45,1594.71,4865.39,1603.06,4866.54,1614.19z"/>
			</g>
			<g>
				<path class="st4" d="M4785.89,1594.71c15.63,0,27.33,11.21,27.33,29.71c0,18-10.8,29.05-26.51,29.05
					c-14.48,0-23.65-7.86-24.88-19.89l-0.08-0.82h11.21l0.16,0.82c1.47,7.04,5.73,11.46,13.09,11.46c8.59,0,15.06-7.2,15.06-21.28
					c0-12.85-6.14-20.62-15.22-20.62c-7.53,0-11.78,4.09-13.18,11.05l-0.16,0.82h-11.29l0.08-0.82
					C4762.65,1603.06,4770.59,1594.71,4785.89,1594.71z"/>
			</g>
			<g>
				<path class="st4" d="M4740.16,1530.74c-14.36,0-18.74,4.38-18.74,11.93c0,5.6,0.49,8.76,2.68,24.34
					c2.43,17.04,3.16,22.39,3.16,29.94c0,14.12-7.79,22.88-21.18,24.59c13.15,1.7,21.18,10.95,21.18,25.07
					c0,7.55-0.73,12.9-3.16,29.94c-2.19,15.58-2.68,18.74-2.68,24.34c0,7.55,4.38,11.93,18.74,11.93h2.92v13.63h-2.68
					c-20.93,0-33.11-5.84-33.11-25.8c0-5.11,0.49-9.25,2.92-26.53c1.95-13.39,2.68-19.96,2.68-26.78c0-10.71-5.36-17.28-19.96-18.74
					v-13.63c14.6-1.46,19.96-8.03,19.96-18.74c0-6.82-0.73-13.39-2.68-26.78c-2.43-17.28-2.92-21.42-2.92-26.53
					c0-19.96,12.17-25.8,33.11-25.8h2.68v13.63H4740.16z"/>
			</g>
			<g>
				<path class="st4" d="M4882.44,1530.74v-13.63h2.68c20.93,0,33.11,5.84,33.11,25.8c0,5.11-0.49,9.25-2.92,26.53
					c-1.95,13.39-2.68,19.96-2.68,26.78c0,10.71,5.36,17.28,19.96,18.74v13.63c-14.61,1.46-19.96,8.03-19.96,18.74
					c0,6.82,0.73,13.39,2.68,26.78c2.43,17.28,2.92,21.42,2.92,26.53c0,19.96-12.17,25.8-33.11,25.8h-2.68v-13.63h2.92
					c14.36,0,18.74-4.38,18.74-11.93c0-5.6-0.49-8.76-2.68-24.34c-2.43-17.04-3.16-22.39-3.16-29.94c0-14.12,8.03-23.37,21.18-25.07
					c-13.39-1.7-21.18-10.47-21.18-24.59c0-7.55,0.73-12.9,3.16-29.94c2.19-15.58,2.68-18.74,2.68-24.34
					c0-7.55-4.38-11.93-18.74-11.93H4882.44z"/>
			</g>
			<ellipse class="st4" cx="4813.22" cy="1545.19" rx="69.45" ry="10.01"/>
		</g>
	</g>
</g>
<g id="Capa_4">
</g>
<g id="Capa_5">
</g>
</svg>
